<?xml version="1.0" standalone="no"?>
<!DOCTYPE svg PUBLIC "-//W3C//DTD SVG 20010904//EN"
 "http://www.w3.org/TR/2001/REC-SVG-20010904/DTD/svg10.dtd">
<svg version="1.0" xmlns="http://www.w3.org/2000/svg"
 width="768.000000pt" height="768.000000pt" viewBox="0 0 768.000000 768.000000"
 preserveAspectRatio="xMidYMid meet">
<metadata>
Created by potrace 1.16, written by Peter Selinger 2001-2019
</metadata>
<g transform="translate(0.000000,768.000000) scale(0.100000,-0.100000)"
fill="#000000" stroke="none">
<path d="M3575 7484 c-16 -2 -79 -9 -140 -15 -224 -22 -497 -80 -728 -155
-1107 -360 -1986 -1240 -2342 -2345 -76 -237 -123 -455 -157 -729 -18 -142
-17 -659 0 -805 101 -825 445 -1555 1007 -2134 590 -607 1313 -969 2175 -1086
159 -22 563 -31 742 -16 1255 102 2365 838 2947 1952 200 384 327 791 388
1244 22 164 25 684 5 845 -91 732 -343 1337 -796 1906 -104 130 -413 437 -551
548 -529 421 -1142 680 -1825 772 -118 15 -646 29 -725 18z m160 -396 c-3 -18
-30 -211 -60 -428 -30 -217 -115 -836 -190 -1375 -75 -539 -141 -1017 -147
-1061 l-10 -81 -277 -216 c-152 -118 -364 -284 -471 -368 -107 -84 -253 -198
-325 -254 -689 -538 -888 -694 -1088 -850 -98 -77 -187 -146 -198 -154 -18
-13 -23 -6 -83 120 -157 332 -252 655 -302 1034 -22 163 -25 569 -5 730 106
884 508 1627 1188 2193 507 423 1147 676 1858 735 118 10 117 10 110 -25z
m505 5 c947 -114 1787 -633 2325 -1434 288 -428 461 -896 531 -1435 22 -162
24 -570 5 -729 -40 -338 -121 -648 -246 -940 -42 -98 -111 -243 -121 -254 -4
-4 -23 10 -286 216 -390 304 -488 381 -635 496 -87 68 -313 244 -503 392 -190
148 -480 375 -645 503 l-300 235 -17 121 c-21 147 -255 1824 -338 2417 -33
235 -60 430 -60 434 0 8 120 -1 290 -22z m-140 -3971 c135 -55 376 -152 535
-217 272 -110 360 -146 835 -338 282 -114 589 -239 860 -349 135 -55 253 -102
263 -105 9 -3 17 -9 17 -15 0 -5 -26 -48 -59 -96 -488 -724 -1263 -1231 -2121
-1386 -229 -41 -342 -51 -595 -50 -267 1 -419 16 -655 64 -823 169 -1569 666
-2039 1360 l-71 103 248 102 c328 136 1173 483 1912 785 245 100 481 197 525
216 44 18 85 31 90 29 6 -2 120 -48 255 -103z"/>
</g>
</svg>
